<svg xmlns="http://www.w3.org/2000/svg" width="134" height="198" viewBox="0 0 134 198"><g><g><path fill="#0f1417" d="M67 8V7h24v1z"/></g><g><path fill="#0f1417" d="M90.646 8.354l.708-.707 42 42-.708.707z"/></g><g><path d="M67 7.5c0 2.003-.78 3.887-2.197 5.303A7.45 7.45 0 0 1 59.5 15a7.45 7.45 0 0 1-5.303-2.197A7.45 7.45 0 0 1 52 7.5a7.45 7.45 0 0 1 2.197-5.303A7.45 7.45 0 0 1 59.5 0a7.45 7.45 0 0 1 5.303 2.197A7.451 7.451 0 0 1 67 7.5zm-.879 0c0-3.65-2.97-6.621-6.621-6.621A6.629 6.629 0 0 0 52.879 7.5c0 3.65 2.97 6.621 6.621 6.621A6.629 6.629 0 0 0 66.121 7.5zm-3.038-1.785l-4.191 4.191a.438.438 0 0 1-.622 0l-2.353-2.353a.44.44 0 1 1 .621-.622l2.043 2.043 3.88-3.88a.44.44 0 0 1 .622.621z"/></g><g><path fill="#0f1417" d="M17 62v-1h24v1z"/></g><g><path fill="#0f1417" d="M40.638 62.54l.535-.845 50.19 31.765-.536.845z"/></g><g><path d="M17 61.5c0 2.003-.78 3.887-2.197 5.303A7.45 7.45 0 0 1 9.5 69a7.45 7.45 0 0 1-5.303-2.197A7.45 7.45 0 0 1 2 61.5a7.45 7.45 0 0 1 2.197-5.303A7.45 7.45 0 0 1 9.5 54a7.45 7.45 0 0 1 5.303 2.197A7.45 7.45 0 0 1 17 61.5zm-.879 0c0-3.65-2.97-6.621-6.621-6.621A6.629 6.629 0 0 0 2.879 61.5c0 3.65 2.97 6.621 6.621 6.621A6.629 6.629 0 0 0 16.12 61.5zm-3.038-1.785l-4.191 4.191a.439.439 0 0 1-.622 0l-2.353-2.353a.44.44 0 1 1 .621-.622l2.043 2.043 3.88-3.88a.44.44 0 0 1 .622.62z"/></g><g><path fill="#0f1417" d="M18 132.01v.99h23.879v-.99z"/></g><g><path fill="#0f1417" d="M42.141 132.48l-.282-.96 51-15 .282.96z"/></g><g><path d="M18 132.5a7.45 7.45 0 0 1-2.197 5.303A7.45 7.45 0 0 1 10.5 140a7.45 7.45 0 0 1-5.303-2.197A7.45 7.45 0 0 1 3 132.5c0-2.003.78-3.887 2.197-5.303A7.452 7.452 0 0 1 10.5 125c2.003 0 3.887.78 5.303 2.197A7.451 7.451 0 0 1 18 132.5zm-.879 0a6.628 6.628 0 0 0-6.621-6.621 6.629 6.629 0 0 0-6.621 6.621c0 3.651 2.97 6.621 6.621 6.621a6.628 6.628 0 0 0 6.621-6.62zm-3.038-1.785l-4.191 4.191a.438.438 0 0 1-.622 0l-2.353-2.353a.44.44 0 1 1 .621-.622l2.043 2.043 3.88-3.88a.44.44 0 1 1 .622.621z"/></g><g><path fill="#0f1417" d="M15 190.01v.99h23.879v-.99z"/></g><g><path fill="#0f1417" d="M38.519 189.475l.532.837 49.936-31.467-.532-.837z"/></g><g><path d="M15 190.5a7.45 7.45 0 0 1-2.197 5.303A7.45 7.45 0 0 1 7.5 198a7.45 7.45 0 0 1-5.303-2.197A7.45 7.45 0 0 1 0 190.5a7.45 7.45 0 0 1 2.197-5.303A7.45 7.45 0 0 1 7.5 183a7.45 7.45 0 0 1 5.303 2.197A7.45 7.45 0 0 1 15 190.5zm-.879 0c0-3.65-2.97-6.621-6.621-6.621A6.629 6.629 0 0 0 .879 190.5c0 3.65 2.97 6.621 6.621 6.621 3.65 0 6.621-2.97 6.621-6.621zm-3.038-1.785l-4.191 4.191a.438.438 0 0 1-.622 0l-2.353-2.353a.44.44 0 1 1 .621-.622l2.043 2.043 3.88-3.88a.44.44 0 0 1 .622.62z"/></g></g></svg>