<svg xmlns="http://www.w3.org/2000/svg" width="142" height="198" viewBox="0 0 142 198"><g><g><path fill="#0f1417" d="M66.422 8.5v-1H42.394v1z"/></g><g><path fill="#0f1417" d="M42.748 8.854l-.708-.707-42.05 42 .708.707z"/></g><g><path d="M81 7.5a7.45 7.45 0 0 1-2.197 5.303A7.45 7.45 0 0 1 73.5 15a7.45 7.45 0 0 1-5.303-2.197A7.45 7.45 0 0 1 66 7.5c0-2.003.78-3.887 2.197-5.303A7.451 7.451 0 0 1 73.5 0c2.003 0 3.887.78 5.303 2.197A7.451 7.451 0 0 1 81 7.5zm-.879 0c0-3.65-2.97-6.621-6.621-6.621A6.629 6.629 0 0 0 66.879 7.5c0 3.65 2.97 6.621 6.621 6.621 3.65 0 6.621-2.97 6.621-6.62zm-3.038-1.785l-4.191 4.191a.438.438 0 0 1-.622 0l-2.353-2.353a.44.44 0 1 1 .621-.622l2.043 2.043 3.88-3.88a.44.44 0 1 1 .622.621z"/></g><g><path fill="#0f1417" d="M108.478 69.5v-1H84.45v1z"/></g><g><path fill="#0f1417" d="M84.813 70.04l-.536-.845L34.03 100.96l.535.845z"/></g><g><path d="M123 68.5a7.45 7.45 0 0 1-2.197 5.303A7.45 7.45 0 0 1 115.5 76a7.45 7.45 0 0 1-5.303-2.197A7.451 7.451 0 0 1 108 68.5a7.45 7.45 0 0 1 2.197-5.303A7.45 7.45 0 0 1 115.5 61a7.45 7.45 0 0 1 5.303 2.197A7.45 7.45 0 0 1 123 68.5zm-.879 0c0-3.65-2.97-6.621-6.621-6.621a6.629 6.629 0 0 0-6.621 6.621c0 3.65 2.97 6.621 6.621 6.621 3.65 0 6.621-2.97 6.621-6.621zm-3.038-1.785l-4.191 4.191a.438.438 0 0 1-.622 0l-2.353-2.353a.44.44 0 0 1 .621-.622l2.043 2.043 3.88-3.88a.44.44 0 0 1 .622.62z"/></g><g><path fill="#0f1417" d="M127.48 132.51v.99h-23.908v-.99z"/></g><g><path fill="#0f1417" d="M103.31 132.98l.282-.96-51.06-15-.282.96z"/></g><g><path d="M142 132.5a7.45 7.45 0 0 1-2.197 5.303A7.45 7.45 0 0 1 134.5 140a7.45 7.45 0 0 1-5.303-2.197A7.45 7.45 0 0 1 127 132.5a7.45 7.45 0 0 1 2.197-5.303A7.45 7.45 0 0 1 134.5 125a7.45 7.45 0 0 1 5.303 2.197A7.45 7.45 0 0 1 142 132.5zm-.879 0c0-3.65-2.97-6.621-6.621-6.621a6.628 6.628 0 0 0-6.621 6.621c0 3.65 2.97 6.621 6.621 6.621a6.629 6.629 0 0 0 6.621-6.621zm-3.038-1.785l-4.191 4.191a.437.437 0 0 1-.622 0l-2.353-2.353a.44.44 0 0 1 .621-.622l2.043 2.043 3.88-3.88a.44.44 0 1 1 .622.621z"/></g><g><path fill="#0f1417" d="M124.483 190.51v.99h-23.907v-.99z"/></g><g><path fill="#0f1417" d="M100.937 189.974l-.533.837-49.995-31.466.532-.837z"/></g><g><path d="M139 190.5c0 2.003-.78 3.887-2.197 5.303A7.452 7.452 0 0 1 131.5 198a7.451 7.451 0 0 1-5.303-2.197A7.451 7.451 0 0 1 124 190.5a7.45 7.45 0 0 1 2.197-5.303A7.45 7.45 0 0 1 131.5 183a7.45 7.45 0 0 1 5.303 2.197A7.45 7.45 0 0 1 139 190.5zm-.879 0c0-3.651-2.97-6.621-6.621-6.621a6.628 6.628 0 0 0-6.621 6.62 6.629 6.629 0 0 0 6.621 6.622c3.65 0 6.621-2.97 6.621-6.621zm-3.038-1.785l-4.191 4.191a.438.438 0 0 1-.622 0l-2.353-2.353a.44.44 0 1 1 .621-.622l2.043 2.043 3.88-3.88a.44.44 0 1 1 .622.621z"/></g></g></svg>